<!-- Date palm tree silhouette (CSS mask). -->
<svg xmlns="http://www.w3.org/2000/svg" viewBox="0 0 100 100" fill="#000">
  <path d="M47 96 Q46 60 49 38 L51 38 Q54 60 53 96 Z"/>
  <g>
    <path d="M50 38 Q32 22 14 26 Q34 28 50 42 Z"/>
    <path d="M50 38 Q68 22 86 26 Q66 28 50 42 Z"/>
    <path d="M50 38 Q40 18 26 12 Q44 22 50 40 Z"/>
    <path d="M50 38 Q60 18 74 12 Q56 22 50 40 Z"/>
    <path d="M50 38 Q50 16 50 8 Q54 20 52 40 Z"/>
  </g>
  <circle cx="46" cy="42" r="2"/><circle cx="54" cy="42" r="2"/><circle cx="50" cy="46" r="2"/>
</svg>
