<!-- Domed mosque with minarets silhouette (CSS mask). -->
<svg xmlns="http://www.w3.org/2000/svg" viewBox="0 0 100 100" fill="#000">
  <!-- minarets -->
  <path d="M14 90 V46 Q14 40 18 40 Q22 40 22 46 V90 Z"/>
  <path d="M16 40 Q18 32 20 40 Z"/>
  <path d="M78 90 V46 Q78 40 82 40 Q86 40 86 46 V90 Z"/>
  <path d="M80 40 Q82 32 84 40 Z"/>
  <!-- main hall -->
  <path d="M28 90 V58 H72 V90 Z"/>
  <!-- dome -->
  <path d="M34 58 Q34 36 50 34 Q66 36 66 58 Z"/>
  <path d="M48 34 Q48 26 50 22 Q52 26 52 34 Z"/>
</svg>
