<!-- Palm Jumeirah — stylised aerial palm silhouette (CSS mask). -->
<svg xmlns="http://www.w3.org/2000/svg" viewBox="0 0 100 100" fill="#000">
  <!-- trunk spine -->
  <path d="M48 96 L52 96 L51 40 L49 40 Z"/>
  <!-- fronds -->
  <g>
    <path d="M50 44 Q30 40 18 50 Q34 46 50 50 Z"/>
    <path d="M50 44 Q70 40 82 50 Q66 46 50 50 Z"/>
    <path d="M50 52 Q28 50 16 62 Q34 54 50 58 Z"/>
    <path d="M50 52 Q72 50 84 62 Q66 54 50 58 Z"/>
    <path d="M50 60 Q30 60 20 72 Q36 64 50 66 Z"/>
    <path d="M50 60 Q70 60 80 72 Q64 64 50 66 Z"/>
  </g>
  <!-- crescent breakwater -->
  <path d="M14 40 A40 40 0 0 1 86 40 L82 40 A36 36 0 0 0 18 40 Z"/>
</svg>
