<!-- Wheat / rice stalk silhouette (CSS mask). -->
<svg xmlns="http://www.w3.org/2000/svg" viewBox="0 0 100 100" fill="#000">
  <rect x="48" y="44" width="4" height="52"/>
  <path d="M50 14 Q46 22 50 30 Q54 22 50 14 Z"/>
  <g>
    <path d="M50 26 Q40 28 38 38 Q48 38 50 30 Z"/>
    <path d="M50 26 Q60 28 62 38 Q52 38 50 30 Z"/>
    <path d="M50 36 Q40 38 38 48 Q48 48 50 40 Z"/>
    <path d="M50 36 Q60 38 62 48 Q52 48 50 40 Z"/>
    <path d="M50 46 Q40 48 38 58 Q48 58 50 50 Z"/>
    <path d="M50 46 Q60 48 62 58 Q52 58 50 50 Z"/>
  </g>
</svg>
